<svg width="18" height="18" viewBox="0 0 18 18" fill="none" xmlns="http://www.w3.org/2000/svg">
<path fill-rule="evenodd" clip-rule="evenodd" d="M16 0H2C0.9 0 0 0.9 0 2V16C0 17.1 0.9 18 2 18H16C17.1 18 18 17.1 18 16V2C18 0.9 17.1 0 16 0ZM7.70711 13.2929L3.43455 9.18466C3.03749 8.80288 3.03749 8.16752 3.43455 7.78574C3.81018 7.42455 4.40403 7.42455 4.77967 7.78574L7.70711 10.6006L13.2203 5.34792C13.5964 4.98956 14.1881 4.99091 14.5625 5.351C14.9607 5.73387 14.9595 6.37141 14.5599 6.75279L7.70711 13.2929Z" fill="#0061D9"/>
<path fill-rule="evenodd" clip-rule="evenodd" d="M16 0H2C0.9 0 0 0.9 0 2V16C0 17.1 0.9 18 2 18H16C17.1 18 18 17.1 18 16V2C18 0.9 17.1 0 16 0ZM7.70711 13.2929L3.43455 9.18466C3.03749 8.80288 3.03749 8.16752 3.43455 7.78574C3.81018 7.42455 4.40403 7.42455 4.77967 7.78574L7.70711 10.6006L13.2203 5.34792C13.5964 4.98956 14.1881 4.99091 14.5625 5.351C14.9607 5.73387 14.9595 6.37141 14.5599 6.75279L7.70711 13.2929Z" fill="#3368C3"/>
</svg>
