<svg width="32" height="40" viewBox="0 0 32 40" fill="none" xmlns="http://www.w3.org/2000/svg">
<path d="M0 4C0 1.79086 1.79086 0 4 0H16H24L32 10V20V36C32 38.2091 30.2091 40 28 40H4C1.79086 40 0 38.2091 0 36V4Z" fill="#F5F5F7"/>
<mask id="mask0" mask-type="alpha" maskUnits="userSpaceOnUse" x="0" y="0" width="32" height="40">
<path d="M0 4C0 1.79086 1.79086 0 4 0H16H24L32 10V20V36C32 38.2091 30.2091 40 28 40H4C1.79086 40 0 38.2091 0 36V4Z" fill="#C4C4C4"/>
</mask>
<g mask="url(#mask0)">
<rect x="20" y="-5" width="15" height="17" fill="#D9D9DE"/>
</g>
<rect x="9" y="20" width="14" height="2" fill="#333333"/>
<rect x="9" y="28" width="8" height="2" fill="#333333"/>
</svg>
