<svg width="44" height="53" viewBox="0 0 44 53" fill="none" xmlns="http://www.w3.org/2000/svg">
<path d="M6 11C6 8.79086 7.79086 7 10 7H22H30L38 17V27V43C38 45.2091 36.2091 47 34 47H10C7.79086 47 6 45.2091 6 43V11Z" fill="#F5F5F7"/>
<mask id="mask0" mask-type="alpha" maskUnits="userSpaceOnUse" x="6" y="7" width="32" height="40">
<path d="M6 11C6 8.79086 7.79086 7 10 7H22H30L38 17V27V43C38 45.2091 36.2091 47 34 47H10C7.79086 47 6 45.2091 6 43V11Z" fill="#C4C4C4"/>
</mask>
<g mask="url(#mask0)">
<rect x="26" y="2" width="15" height="17" fill="#D9D9DE"/>
</g>
</svg>
