<svg width="139" height="139" viewBox="0 0 139 139" fill="none" xmlns="http://www.w3.org/2000/svg">
<path fill-rule="evenodd" clip-rule="evenodd" d="M9.99986 55.2606C9.86986 55.2606 9.74986 55.2306 9.61986 55.1806C9.10986 54.9606 8.85986 54.3806 9.08986 53.8706L11.4699 48.1206L13.8499 42.3706C14.0699 41.8606 14.6499 41.6206 15.1599 41.8306C15.6699 42.0506 15.9099 42.6306 15.6999 43.1406L13.6999 47.9606L22.3899 51.5606C22.4072 51.5259 22.4212 51.4879 22.4357 51.4485C22.4463 51.4197 22.4572 51.3901 22.4699 51.3606C25.0999 45.3806 28.6799 40.0106 33.0399 35.4006L29.9999 32.0206L28.3999 33.4206C28.2099 33.5906 27.9699 33.6706 27.7399 33.6706C27.4599 33.6706 27.1899 33.5506 26.9899 33.3306C26.6199 32.9206 26.6599 32.2806 27.0799 31.9206L29.4099 29.8706L31.7599 27.8106C32.1699 27.4406 32.8099 27.4906 33.1699 27.9006C33.5399 28.3106 33.4999 28.9506 33.0799 29.3106L31.4999 30.7006L34.4599 33.9906C39.4299 29.1006 45.3299 25.1606 51.9199 22.3806L48.4199 13.6306L43.5799 15.5706C43.4599 15.6206 43.3299 15.6406 43.2099 15.6406C42.8099 15.6406 42.4399 15.4006 42.2799 15.0106C42.0699 14.5006 42.3199 13.9206 42.8299 13.7106L48.5999 11.3906L54.3599 9.07058C54.8699 8.86058 55.4499 9.11058 55.6599 9.62058C55.8699 10.1306 55.6199 10.7106 55.1099 10.9206L50.2699 12.8706L53.7699 21.6106C59.9299 19.2606 66.3399 18.0406 72.7499 17.9306L73.0399 13.3806L70.9199 13.2206C70.3699 13.1806 69.9599 12.7006 69.9999 12.1506C70.0399 11.6006 70.5099 11.1806 71.0799 11.2306L74.1699 11.4606L77.2799 11.7006C77.8299 11.7406 78.2399 12.2206 78.1999 12.7706C78.1599 13.2906 77.7199 13.6906 77.1999 13.6906L77.1199 13.6906L75.0299 13.5306L74.7499 17.9306C81.7099 18.0606 88.6399 19.5306 95.2399 22.3006L99.0399 13.6706L94.2699 11.5706C93.7699 11.3506 93.5399 10.7606 93.7599 10.2506C93.9799 9.75058 94.5699 9.52058 95.0799 9.74058L106.44 14.7806C106.94 15.0006 107.17 15.5906 106.95 16.1006C106.78 16.4806 106.41 16.7006 106.03 16.7006C105.9 16.7006 105.76 16.6806 105.63 16.6206L100.86 14.5206L97.0599 23.1506C103.11 25.9506 108.44 29.7106 112.93 34.1706L116.41 31.1706L115.04 29.5406C114.68 29.1206 114.74 28.4906 115.16 28.1306C115.59 27.7706 116.22 27.8306 116.57 28.2506L120.57 33.0206C120.93 33.4406 120.87 34.0706 120.45 34.4306C120.26 34.5806 120.04 34.6606 119.81 34.6606C119.52 34.6606 119.24 34.5406 119.04 34.3006L117.69 32.6906L114.33 35.5806C118.06 39.5606 121.15 44.0306 123.55 48.8406L132.06 44.7606L129.81 40.0506C129.57 39.5606 129.78 38.9606 130.28 38.7206C130.78 38.4806 131.37 38.6906 131.61 39.1906L136.97 50.4106C137.21 50.9006 137 51.5006 136.5 51.7406C136.36 51.8106 136.21 51.8406 136.07 51.8406C135.7 51.8406 135.34 51.6306 135.17 51.2706L132.92 46.5606L124.41 50.6506C127.09 56.5406 128.76 62.8706 129.3 69.3606L133.88 69.3506L133.9 67.2206C133.9 66.6706 134.31 66.2006 134.91 66.2306C135.46 66.2306 135.91 66.6906 135.9 67.2406L135.83 73.4706C135.82 74.0206 135.38 74.4606 134.83 74.4606L134.82 74.4606C134.27 74.4606 133.82 74.0006 133.83 73.4506L133.85 71.3506L129.41 71.3606C129.73 78.2506 128.77 85.2806 126.41 92.1206L135.26 95.3406L137.05 90.4306C137.24 89.9106 137.81 89.6406 138.33 89.8306C138.85 90.0206 139.12 90.5906 138.93 91.1106L134.67 102.801C134.52 103.211 134.14 103.461 133.73 103.461C133.62 103.461 133.5 103.441 133.39 103.401C132.87 103.211 132.6 102.641 132.79 102.121L134.58 97.2106L125.74 93.9906C125.42 94.8106 125.09 95.6306 124.73 96.4506C122.43 101.661 119.41 106.401 115.79 110.591L118.98 113.841L120.52 112.371C120.92 111.991 121.55 112.001 121.93 112.401C122.31 112.801 122.3 113.431 121.9 113.811L117.4 118.121C117.21 118.311 116.96 118.401 116.71 118.401C116.45 118.401 116.19 118.291 115.99 118.091C115.61 117.691 115.62 117.061 116.02 116.681L117.54 115.221L114.46 112.071C109.69 117.191 103.97 121.381 97.5199 124.431L101.4 133.021L106.15 130.871C106.65 130.641 107.24 130.871 107.47 131.371C107.7 131.871 107.47 132.461 106.97 132.691L95.6399 137.821C95.5099 137.881 95.3699 137.911 95.2299 137.911C94.8499 137.911 94.4899 137.691 94.3199 137.321C94.0899 136.821 94.3199 136.231 94.8199 136.001L99.5999 133.831L95.7199 125.241L95.4739 125.346C94.9279 125.581 94.3864 125.813 93.8299 126.031C88.3399 128.171 82.6399 129.401 76.9199 129.751L76.8199 134.321L78.9399 134.391C79.4899 134.411 79.9299 134.871 79.9099 135.421C79.8899 135.961 79.4499 136.391 78.9099 136.391L78.8799 136.391L75.7999 136.291L75.7799 136.291L75.7699 136.291L72.6499 136.191C72.0999 136.171 71.6599 135.711 71.6799 135.161C71.6999 134.621 72.1399 134.191 72.6799 134.191L72.7099 134.191L74.8099 134.261L74.8999 129.841C74.7514 129.844 74.6018 129.848 74.4518 129.853L74.4517 129.853L74.4516 129.853C74.1472 129.862 73.8413 129.871 73.5399 129.871C67.0099 129.871 60.4899 128.701 54.2399 126.381L50.8199 135.161L55.6799 137.051C56.1999 137.251 56.4499 137.831 56.2499 138.341C56.0999 138.741 55.7199 138.981 55.3199 138.981C55.1999 138.981 55.0799 138.961 54.9599 138.911L43.3799 134.401C42.8599 134.201 42.6099 133.621 42.8099 133.111C42.9999 132.591 43.5899 132.341 44.0999 132.541L48.9599 134.431L52.3799 125.641C52.1599 125.546 51.9374 125.456 51.7149 125.366L51.7148 125.366L51.7146 125.365C51.4922 125.276 51.2698 125.186 51.0499 125.091C45.3999 122.591 40.3799 119.261 36.0399 115.321L32.6899 118.471L34.1299 120.041C34.5099 120.451 34.4799 121.081 34.0699 121.451C33.8799 121.621 33.6399 121.711 33.3999 121.711C33.1299 121.711 32.8599 121.601 32.6599 121.381L30.5699 119.101L28.4599 116.801C28.0799 116.391 28.1099 115.761 28.5199 115.391C28.9199 115.011 29.5599 115.041 29.9299 115.451L31.3499 117.001L34.5799 113.961C29.4999 108.991 25.4599 103.141 22.6099 96.7606L13.9299 100.471L15.9699 105.271C16.1899 105.781 15.9499 106.361 15.4399 106.581C15.3099 106.631 15.1799 106.661 15.0499 106.661C14.6599 106.661 14.2899 106.431 14.1299 106.051L11.6999 100.331L9.25986 94.6106C9.03986 94.1006 9.27986 93.5206 9.78986 93.3006C10.2999 93.0806 10.8799 93.3206 11.0999 93.8306L13.1399 98.6306L21.8299 94.9206C19.4099 88.9406 18.0099 82.5406 17.7599 76.0206L13.1799 75.8306L13.0599 77.9606C13.0299 78.5006 12.5899 78.9106 12.0599 78.9106L11.9999 78.9106C11.4499 78.8806 11.0299 78.4106 11.0599 77.8606L11.2299 74.7606L11.3999 71.6406C11.4299 71.0906 11.8899 70.6506 12.4499 70.7006C12.9999 70.7306 13.4199 71.2006 13.3899 71.7506L13.2699 73.8506L17.7099 74.0406C17.6899 67.1606 18.9499 60.1806 21.6099 53.4306L12.9199 49.8206L10.9199 54.6406C10.7599 55.0306 10.3899 55.2606 9.99986 55.2606ZM54.1199 23.6106C46.8299 26.4506 40.3899 30.7406 35.0799 36.1806C30.6099 40.7606 26.9499 46.1406 24.2899 52.1706C12.2999 79.4006 24.6599 111.301 51.8399 123.291C65.0099 129.091 79.6599 129.411 93.0799 124.191C106.51 118.961 117.1 108.821 122.91 95.6306C134.91 68.4006 122.55 36.5006 95.3599 24.5206C88.4399 21.4706 81.1099 19.9306 73.7599 19.9206C73.7509 19.9206 73.7419 19.9226 73.732 19.9248C73.7199 19.9276 73.7064 19.9306 73.6899 19.9306L73.6199 19.9306C73.6099 19.9306 73.6024 19.9281 73.5949 19.9256C73.5874 19.9231 73.5799 19.9206 73.5699 19.9206C67.0099 19.9306 60.4299 21.1606 54.1199 23.6106ZM57.9609 58C57.9609 62.96 53.9209 67 48.9609 67C44.0009 67 39.9609 62.96 39.9609 58C39.9609 53.04 44.0009 49 48.9609 49C53.9209 49 57.9609 53.04 57.9609 58ZM55.9609 58C55.9609 54.14 52.8209 51 48.9609 51C45.1009 51 41.9609 54.14 41.9609 58C41.9609 61.86 45.1009 65 48.9609 65C52.8209 65 55.9609 61.86 55.9609 58ZM69.1993 97.75C73.0593 97.75 76.1993 94.61 76.1993 90.75C76.1993 86.89 73.0593 83.75 69.1993 83.75C65.3393 83.75 62.1993 86.89 62.1993 90.75C62.1993 94.61 65.3393 97.75 69.1993 97.75ZM69.1993 85.75C71.9593 85.75 74.1993 87.99 74.1993 90.75C74.1993 93.51 71.9593 95.75 69.1993 95.75C66.4393 95.75 64.1993 93.51 64.1993 90.75C64.1993 87.99 66.4493 85.75 69.1993 85.75ZM91.8711 59.6601C91.8711 62.9701 89.1811 65.6601 85.8711 65.6601C82.5611 65.6601 79.8711 62.9701 79.8711 59.6601C79.8711 56.3501 82.5611 53.6601 85.8711 53.6601C89.1811 53.6601 91.8711 56.3501 91.8711 59.6601ZM89.8711 59.6601C89.8711 57.4501 88.0811 55.6601 85.8711 55.6601C83.6611 55.6601 81.8711 57.4501 81.8711 59.6601C81.8711 61.8701 83.6611 63.6601 85.8711 63.6601C88.0811 63.6601 89.8711 61.8701 89.8711 59.6601Z" fill="white"/>
</svg>
