<svg width="112" height="112" viewBox="0 0 112 112" fill="none" xmlns="http://www.w3.org/2000/svg">
<g clip-path="url(#clip0)">
<path fill-rule="evenodd" clip-rule="evenodd" d="M63.8505 8.64062L64.338 9.13177L78.7563 23.6571H91.9789H92.6789V24.3571V37.6829L121.06 66.2746L121.683 66.9019L120.929 67.3643L92.3451 84.9121L81.0377 91.8537L121.061 132.347L120.065 133.331L79.8126 92.6058L64.2075 102.186L63.8469 102.407L63.4832 102.191L33.1125 84.1155L6.03281 67.999V131.188L46.3826 92.1575L47.356 93.1637L5.81949 133.342L4.63281 134.49V132.839V66.7678V66.473L4.84372 66.267L32.7705 38.992V24.3571V23.6571H33.4705H48.3721L63.3538 9.12249L63.8505 8.64062ZM50.3827 23.6571H76.7837L63.832 10.6092L50.3827 23.6571ZM46.929 25.0571H34.1705V39.2868V83.116L63.8356 100.771L79.5537 91.122L91.2789 83.9239V37.9714V25.0571H78.4649H48.6558H46.929ZM92.6789 83.0645L119.444 66.6336L92.6789 39.6702V83.0645ZM32.7705 82.2827V40.949L6.47357 66.6321L32.7705 82.2827ZM77.6868 44.2535H49.1025V42.8535H77.6868V44.2535ZM49.1025 58.5392H77.6868V57.1392H49.1025V58.5392ZM77.6868 72.8249H49.1025V71.4249H77.6868V72.8249ZM49.1025 65.682H77.6868V64.282H49.1025V65.682Z" fill="white"/>
</g>
<defs>
<clipPath id="clip0">
<rect width="112" height="112" fill="white"/>
</clipPath>
</defs>
</svg>
