<svg width="24" height="24" viewBox="0 0 24 24" fill="none" xmlns="http://www.w3.org/2000/svg">
<path fill-rule="evenodd" clip-rule="evenodd" d="M14.9639 14.2559H15.7539L20.7439 19.2559L19.2539 20.7459L14.2539 15.7559V14.9659L13.9839 14.6859C12.8439 15.6659 11.3639 16.2559 9.75391 16.2559C6.16391 16.2559 3.25391 13.3459 3.25391 9.75586C3.25391 6.16586 6.16391 3.25586 9.75391 3.25586C13.3439 3.25586 16.2539 6.16586 16.2539 9.75586C16.2539 11.3659 15.6639 12.8459 14.6839 13.9859L14.9639 14.2559ZM5.25391 9.75586C5.25391 12.2459 7.26391 14.2559 9.75391 14.2559C12.2439 14.2559 14.2539 12.2459 14.2539 9.75586C14.2539 7.26586 12.2439 5.25586 9.75391 5.25586C7.26391 5.25586 5.25391 7.26586 5.25391 9.75586Z" fill="#0061D9"/>
<path fill-rule="evenodd" clip-rule="evenodd" d="M14.9639 14.2559H15.7539L20.7439 19.2559L19.2539 20.7459L14.2539 15.7559V14.9659L13.9839 14.6859C12.8439 15.6659 11.3639 16.2559 9.75391 16.2559C6.16391 16.2559 3.25391 13.3459 3.25391 9.75586C3.25391 6.16586 6.16391 3.25586 9.75391 3.25586C13.3439 3.25586 16.2539 6.16586 16.2539 9.75586C16.2539 11.3659 15.6639 12.8459 14.6839 13.9859L14.9639 14.2559ZM5.25391 9.75586C5.25391 12.2459 7.26391 14.2559 9.75391 14.2559C12.2439 14.2559 14.2539 12.2459 14.2539 9.75586C14.2539 7.26586 12.2439 5.25586 9.75391 5.25586C7.26391 5.25586 5.25391 7.26586 5.25391 9.75586Z" fill="#3368C3"/>
</svg>