<svg version="1.1" xmlns="http://www.w3.org/2000/svg" xmlns:xlink="http://www.w3.org/1999/xlink">

    <symbol viewBox="0 0 16 16" id="top-sites">
        <path fill-rule="evenodd" clip-rule="evenodd" d="M4 2C4 3.10457 3.10457 4 2 4C0.895431 4 0 3.10457 0 2C0 0.895431 0.895431 0 2 0C3.10457 0 4 0.895431 4 2ZM4 8C4 9.10457 3.10457 10 2 10C0.895431 10 0 9.10457 0 8C0 6.89543 0.895431 6 2 6C3.10457 6 4 6.89543 4 8ZM2 16C3.10457 16 4 15.1046 4 14C4 12.8954 3.10457 12 2 12C0.895431 12 0 12.8954 0 14C0 15.1046 0.895431 16 2 16ZM10 2C10 3.10457 9.10457 4 8 4C6.89543 4 6 3.10457 6 2C6 0.895431 6.89543 0 8 0C9.10457 0 10 0.895431 10 2ZM8 10C9.10457 10 10 9.10457 10 8C10 6.89543 9.10457 6 8 6C6.89543 6 6 6.89543 6 8C6 9.10457 6.89543 10 8 10ZM10 14C10 15.1046 9.10457 16 8 16C6.89543 16 6 15.1046 6 14C6 12.8954 6.89543 12 8 12C9.10457 12 10 12.8954 10 14ZM14 4C15.1046 4 16 3.10457 16 2C16 0.895431 15.1046 0 14 0C12.8954 0 12 0.895431 12 2C12 3.10457 12.8954 4 14 4ZM16 8C16 9.10457 15.1046 10 14 10C12.8954 10 12 9.10457 12 8C12 6.89543 12.8954 6 14 6C15.1046 6 16 6.89543 16 8ZM14 16C15.1046 16 16 15.1046 16 14C16 12.8954 15.1046 12 14 12C12.8954 12 12 12.8954 12 14C12 15.1046 12.8954 16 14 16Z" />
    </symbol>

    <symbol viewBox="0 0 18 20" id="top-phones">
        <path d="M3 0.5H17C17.2761 0.5 17.5 0.723858 17.5 1V19C17.5 19.2761 17.2761 19.5 17 19.5H3C1.61929 19.5 0.5 18.3807 0.5 17V3C0.5 1.61929 1.61929 0.5 3 0.5Z" />
        <path d="M3 14.5H17.5V19C17.5 19.2761 17.2761 19.5 17 19.5H3C1.61929 19.5 0.5 18.3807 0.5 17C0.5 15.6193 1.61929 14.5 3 14.5Z" />
        <path d="M13.5 9.21V10.978C13.5001 11.1046 13.4521 11.2265 13.3658 11.3191C13.2795 11.4117 13.1613 11.4681 13.035 11.477C12.8165 11.492 12.638 11.5 12.5 11.5C8.0815 11.5 4.5 7.9185 4.5 3.5C4.5 3.362 4.5075 3.1835 4.523 2.965C4.53186 2.83872 4.58829 2.72051 4.6809 2.6342C4.77351 2.5479 4.89541 2.49994 5.022 2.5H6.79C6.85202 2.49994 6.91185 2.52293 6.95786 2.56451C7.00388 2.60609 7.0328 2.66329 7.039 2.725C7.0505 2.84 7.061 2.9315 7.071 3.001C7.17037 3.69446 7.374 4.36892 7.675 5.0015C7.7225 5.1015 7.6915 5.221 7.6015 5.285L6.5225 6.056C7.18223 7.59323 8.40727 8.81827 9.9445 9.478L10.7145 8.401C10.746 8.357 10.7919 8.32544 10.8442 8.31183C10.8966 8.29821 10.9521 8.3034 11.001 8.3265C11.6335 8.62693 12.3078 8.83006 13.001 8.929C13.0705 8.939 13.162 8.95 13.276 8.961C13.3376 8.96732 13.3947 8.99629 13.4362 9.04229C13.4777 9.08829 13.5006 9.14806 13.5005 9.21H13.5Z" fill="#fff" stroke="none" />
    </symbol>

    <symbol viewBox="0 0 30 20" id="top-video">
        <path d="M11 5L21 10L11 15V5Z" fill="white" />
        <rect x="0.5" y="0.5" width="29" height="19" rx="1.5" stroke="white" />
    </symbol>

    <symbol viewBox="0 0 32 26" id="top-special">
        <path d="M31.1627 5.22C30.9807 3.77972 30.28 2.45515 29.1918 1.49429C28.1035 0.533428 26.7024 0.00217466 25.2507 0H24C23.6464 0 23.3072 0.140476 23.0572 0.390525C22.8071 0.640573 22.6667 0.979711 22.6667 1.33333C22.6667 1.68696 22.8071 2.02609 23.0572 2.27614C23.3072 2.52619 23.6464 2.66667 24 2.66667H25.2507C26.0528 2.6678 26.827 2.96128 27.4283 3.49215C28.0296 4.02302 28.4168 4.75487 28.5173 5.55067C28.824 8.00133 29.0347 10.4773 29.1693 12.956C28.1915 12.2031 27.0361 11.7151 25.8146 11.5389C24.5932 11.3628 23.3469 11.5045 22.1962 11.9504C21.0455 12.3963 20.0292 13.1313 19.2453 14.0845C18.4615 15.0377 17.9366 16.1768 17.7213 17.392C17.6249 17.3607 17.5251 17.341 17.424 17.3333H14.624C14.5063 17.3406 14.3901 17.3639 14.2787 17.4027C14.0652 16.1861 13.5414 15.0453 12.758 14.0904C11.9746 13.1355 10.9581 12.3989 9.80671 11.9518C8.65535 11.5046 7.4081 11.3622 6.18557 11.5381C4.96304 11.714 3.80657 12.2024 2.828 12.956C2.96133 10.4773 3.17333 8.00133 3.48 5.55067C3.58064 4.75419 3.96839 4.02179 4.57054 3.49083C5.17269 2.95987 5.94786 2.66683 6.75067 2.66667H8C8.35362 2.66667 8.69276 2.52619 8.94281 2.27614C9.19286 2.02609 9.33333 1.68696 9.33333 1.33333C9.33333 0.979711 9.19286 0.640573 8.94281 0.390525C8.69276 0.140476 8.35362 0 8 0H6.75067C5.29871 0.00185056 3.89723 0.532957 2.80871 1.49385C1.7202 2.45474 1.01931 3.77949 0.837333 5.22C0.280396 9.68059 0.00074835 14.1714 0 18.6667C0.00928701 20.4599 0.687408 22.1851 1.90166 23.5047C3.1159 24.8243 4.77888 25.6432 6.56513 25.8013C8.35139 25.9594 10.1324 25.4453 11.5595 24.3595C12.9866 23.2737 13.9572 21.6944 14.2813 19.9307C14.3927 19.9695 14.5089 19.9928 14.6267 20H17.4267C17.5274 19.9918 17.6267 19.9716 17.7227 19.94C18.0515 21.6999 19.0243 23.2741 20.4511 24.3556C21.8779 25.437 23.6565 25.9481 25.4398 25.789C27.223 25.63 28.8831 24.8123 30.096 23.4954C31.309 22.1785 31.9878 20.457 32 18.6667C31.9993 14.1714 31.7196 9.68059 31.1627 5.22ZM7.2 23.2C6.30339 23.2 5.42692 22.9341 4.68142 22.436C3.93591 21.9379 3.35486 21.2299 3.01175 20.4015C2.66863 19.5731 2.57885 18.6616 2.75377 17.7823C2.92869 16.9029 3.36045 16.0951 3.99445 15.4611C4.62845 14.8271 5.43621 14.3954 6.31559 14.2204C7.19497 14.0455 8.10647 14.1353 8.93483 14.4784C9.76319 14.8215 10.4712 15.4026 10.9693 16.1481C11.4675 16.8936 11.7333 17.7701 11.7333 18.6667C11.7333 19.869 11.2557 21.0221 10.4056 21.8722C9.55539 22.7224 8.40231 23.2 7.2 23.2ZM24.8 23.2C23.9034 23.2 23.0269 22.9341 22.2814 22.436C21.5359 21.9379 20.9549 21.2299 20.6117 20.4015C20.2686 19.5731 20.1789 18.6616 20.3538 17.7823C20.5287 16.9029 20.9605 16.0951 21.5944 15.4611C22.2284 14.8271 23.0362 14.3954 23.9156 14.2204C24.795 14.0455 25.7065 14.1353 26.5348 14.4784C27.3632 14.8215 28.0712 15.4026 28.5693 16.1481C29.0675 16.8936 29.3333 17.7701 29.3333 18.6667C29.3333 19.869 28.8557 21.0221 28.0056 21.8722C27.1554 22.7224 26.0023 23.2 24.8 23.2Z" fill="white" />
    </symbol>

    <symbol viewBox="0 0 207 100" id="top-special-hint">
        <path d="M0 14C0 12.8954 0.895431 12 2 12H161.599C162.172 12 162.717 11.7543 163.097 11.3251L172.502 0.693383C173.298 -0.20642 174.702 -0.206419 175.498 0.693384L184.903 11.3251C185.283 11.7543 185.828 12 186.401 12H205C206.105 12 207 12.8954 207 14V98C207 99.1046 206.105 100 205 100H2C0.895434 100 0 99.1046 0 98V14Z" />
    </symbol>

    <symbol viewBox="0 0 24 24" id="top-search">
        <path fill-rule="evenodd" clip-rule="evenodd" d="M14.9639 14.2559H15.7539L20.7439 19.2559L19.2539 20.7459L14.2539 15.7559V14.9659L13.9839 14.6859C12.8439 15.6659 11.3639 16.2559 9.75391 16.2559C6.16391 16.2559 3.25391 13.3459 3.25391 9.75586C3.25391 6.16586 6.16391 3.25586 9.75391 3.25586C13.3439 3.25586 16.2539 6.16586 16.2539 9.75586C16.2539 11.3659 15.6639 12.8459 14.6839 13.9859L14.9639 14.2559ZM5.25391 9.75586C5.25391 12.2459 7.26391 14.2559 9.75391 14.2559C12.2439 14.2559 14.2539 12.2459 14.2539 9.75586C14.2539 7.26586 12.2439 5.25586 9.75391 5.25586C7.26391 5.25586 5.25391 7.26586 5.25391 9.75586Z" />
    </symbol>

    <symbol viewBox="0 0 32 32" id="search-window-close">
        <rect x="9.63672" y="8.22168" width="20" height="2" transform="rotate(45 9.63672 8.22168)" />
        <rect x="8.22266" y="22.3643" width="20" height="2" transform="rotate(-45 8.22266 22.3643)" />
    </symbol>

    <symbol viewBox="0 0 20 22" id="burger-link">
        <rect y="4" width="20" height="2" />
        <rect y="10" width="20" height="2" />
        <rect y="16" width="20" height="2" />
    </symbol>

    <symbol viewBox="0 0 20 16" id="burger-close">
        <rect x="3.63574" y="0.22168" width="20" height="2" transform="rotate(45 3.63574 0.22168)" />
        <rect x="2.22266" y="14.3643" width="20" height="2" transform="rotate(-45 2.22266 14.3643)" />
    </symbol>

    <symbol viewBox="0 0 24 24" id="burger-submenu-arrow">
        <path d="M6.5 9L12 14.5L17.5 9" stroke-width="1.6" stroke-linecap="round" stroke-linejoin="round" />
    </symbol>

    <symbol viewBox="0 0 19 16" id="slick-arrow">
        <rect x="3.67969" y="7" width="14" height="2" />
        <path fill-rule="evenodd" clip-rule="evenodd" d="M10.1642 2.41421L8.75 1L3.09315 6.65685L1.67893 8.07107L3.09315 9.48528L8.75 15.1421L10.1642 13.7279L4.50736 8.07107L10.1642 2.41421Z" />
    </symbol>

    <symbol viewBox="0 0 24 24" id="main-important-item-link">
        <path d="M10 17.5L15.5 12L10 6.5" stroke-width="1.6" stroke-linecap="round" stroke-linejoin="round" />
    </symbol>

    <symbol viewBox="0 0 5 8" id="main-block-all">
        <path d="M0.227539 0.8L1.023 1.39082e-07L5.00028 4L1.023 8L0.227538 7.2L3.40937 4L0.227539 0.8Z" />
    </symbol>

    <symbol viewBox="0 0 12 10" id="main-news-video">
        <path fill-rule="evenodd" clip-rule="evenodd" d="M2 0C0.895431 0 0 0.89543 0 2V8C0 9.10457 0.895431 10 2 10H10C11.1046 10 12 9.10457 12 8V2C12 0.895431 11.1046 0 10 0H2ZM10 5L3 2V8L10 5Z" />
    </symbol>

    <symbol viewBox="0 0 13 11" id="main-news-photo">
        <path fill-rule="evenodd" clip-rule="evenodd" d="M7.81063 0.0078125H4.205L3.1064 2H1.19091C0.871662 2 0.589972 2.12207 0.345841 2.3662C0.120489 2.61033 0.0078125 2.89202 0.0078125 3.21127V9.78873C0.0078125 10.108 0.120489 10.3897 0.345841 10.6338C0.589972 10.8779 0.871662 11 1.19091 11H10.8247C11.144 11 11.4163 10.8779 11.6416 10.6338C11.8857 10.3897 12.0078 10.108 12.0078 9.78873V3.21127C12.0078 2.89202 11.8857 2.61033 11.6416 2.3662C11.4163 2.12207 11.144 2 10.8247 2H8.90922L7.81063 0.0078125ZM7.92245 5.94659C7.97295 6.12234 8 6.30801 8 6.5C8 7.60457 7.10457 8.5 6 8.5C4.89543 8.5 4 7.60457 4 6.5C4 6.28616 4.03356 6.08017 4.0957 5.88698C4.35454 5.08229 5.10927 4.5 6 4.5C6.91258 4.5 7.6824 5.11121 7.92245 5.94659Z" />
    </symbol>

    <symbol viewBox="0 0 15 10" id="main-news-view">
        <path d="M6.06383 3.59375C6.46808 3.19792 6.94681 3 7.5 3C8.05319 3 8.53191 3.19792 8.93617 3.59375C9.34043 3.98958 9.54255 4.45833 9.54255 5C9.54255 5.54167 9.34043 6.01042 8.93617 6.40625C8.53191 6.80208 8.05319 7 7.5 7C6.94681 7 6.46808 6.80208 6.06383 6.40625C5.65957 6.01042 5.45745 5.54167 5.45745 5C5.45745 4.45833 5.65957 3.98958 6.06383 3.59375ZM5.07447 7.375C5.75532 8.02083 6.56383 8.34375 7.5 8.34375C8.43617 8.34375 9.23404 8.02083 9.89362 7.375C10.5745 6.70833 10.9149 5.91667 10.9149 5C10.9149 4.08333 10.5745 3.30208 9.89362 2.65625C9.23404 1.98958 8.43617 1.65625 7.5 1.65625C6.56383 1.65625 5.75532 1.98958 5.07447 2.65625C4.41489 3.30208 4.08511 4.08333 4.08511 5C4.08511 5.91667 4.41489 6.70833 5.07447 7.375ZM2.93617 1.375C4.29787 0.458333 5.81915 0 7.5 0C9.18085 0 10.7021 0.458333 12.0638 1.375C13.4255 2.29167 14.4043 3.5 15 5C14.4043 6.5 13.4255 7.70833 12.0638 8.625C10.7021 9.54167 9.18085 10 7.5 10C5.81915 10 4.29787 9.54167 2.93617 8.625C1.57447 7.70833 0.595745 6.5 0 5C0.595745 3.5 1.57447 2.29167 2.93617 1.375Z" />
    </symbol>

    <symbol viewBox="0 0 12 16" id="breadcrumbs">
        <path d="M4.22656 4.8L5.02202 4L8.99931 8L5.02202 12L4.22656 11.2L7.40839 8L4.22656 4.8Z" />
    </symbol>

    <symbol viewBox="0 0 24 24" id="media-icon-photo">
        <path d="M8.4375 15.5625C9.4375 16.5312 10.625 17.0156 12 17.0156C13.375 17.0156 14.5469 16.5312 15.5156 15.5625C16.5156 14.5625 17.0156 13.375 17.0156 12C17.0156 10.625 16.5156 9.45312 15.5156 8.48438C14.5469 7.48438 13.375 6.98438 12 6.98438C10.625 6.98438 9.4375 7.48438 8.4375 8.48438C7.46875 9.45312 6.98438 10.625 6.98438 12C6.98438 13.375 7.46875 14.5625 8.4375 15.5625ZM9 2.01562H15L16.8281 3.98438H20.0156C20.5469 3.98438 21 4.1875 21.375 4.59375C21.7812 5 21.9844 5.46875 21.9844 6V18C21.9844 18.5312 21.7812 19 21.375 19.4062C21 19.8125 20.5469 20.0156 20.0156 20.0156H3.98438C3.45312 20.0156 2.98438 19.8125 2.57812 19.4062C2.20312 19 2.01562 18.5312 2.01562 18V6C2.01562 5.46875 2.20312 5 2.57812 4.59375C2.98438 4.1875 3.45312 3.98438 3.98438 3.98438H7.17188L9 2.01562ZM9.75 14.25C9.125 13.625 8.8125 12.875 8.8125 12C8.8125 11.125 9.125 10.375 9.75 9.75C10.375 9.125 11.125 8.8125 12 8.8125C12.875 8.8125 13.625 9.125 14.25 9.75C14.875 10.375 15.1875 11.125 15.1875 12C15.1875 12.875 14.875 13.625 14.25 14.25C13.625 14.875 12.875 15.1875 12 15.1875C11.125 15.1875 10.375 14.875 9.75 14.25Z" />
    </symbol>

    <symbol viewBox="0 0 24 24" id="media-icon-video">
        <path fill-rule="evenodd" clip-rule="evenodd" d="M16.8281 3.98438H7.17188H3.98438C3.45312 3.98438 2.98438 4.1875 2.57812 4.59375C2.20312 5 2.01562 5.46875 2.01562 6V18C2.01562 18.5312 2.20312 19 2.57812 19.4062C2.98438 19.8125 3.45312 20.0156 3.98438 20.0156H20.0156C20.5469 20.0156 21 19.8125 21.375 19.4062C21.7812 19 21.9844 18.5312 21.9844 18V6C21.9844 5.46875 21.7812 5 21.375 4.59375C21 4.1875 20.5469 3.98438 20.0156 3.98438H16.8281ZM17.5 12L8 8V16L17.5 12Z" />
    </symbol>

    <symbol viewBox="0 0 48 48" id="media-icon-zoom">
        <circle cx="24" cy="24" r="23" stroke="white" stroke-opacity="0.92" stroke-width="2" />
        <rect x="23" y="14" width="2" height="20" fill="white" />
        <rect x="14" y="25" width="2" height="20" transform="rotate(-90 14 25)" fill="white" />
    </symbol>

    <symbol viewBox="0 0 18 18" id="share-icon">
        <path d="M10.1818 12.9537L6.34929 10.8634C5.9814 11.2286 5.51364 11.4767 5.00498 11.5764C4.49631 11.6761 3.9695 11.623 3.49098 11.4238C3.01245 11.2245 2.60363 10.8881 2.31605 10.4568C2.02846 10.0255 1.875 9.5188 1.875 9.00045C1.875 8.4821 2.02846 7.97535 2.31605 7.54409C2.60363 7.11284 3.01245 6.77637 3.49098 6.57712C3.9695 6.37788 4.49631 6.32476 5.00498 6.42448C5.51364 6.52419 5.9814 6.77228 6.34929 7.13745L10.1818 5.0472C10.0503 4.4305 10.1453 3.78709 10.4492 3.23464C10.7532 2.68218 11.2458 2.2576 11.8371 2.03852C12.4284 1.81945 13.0788 1.82053 13.6693 2.04156C14.2598 2.2626 14.7511 2.68882 15.0532 3.24228C15.3553 3.79574 15.4481 4.43946 15.3146 5.05571C15.1811 5.67197 14.8303 6.21959 14.3262 6.59842C13.8222 6.97726 13.1986 7.16199 12.5695 7.11885C11.9404 7.0757 11.3479 6.80756 10.9003 6.36345L7.06779 8.4537C7.14423 8.81419 7.14423 9.18671 7.06779 9.5472L10.9003 11.6374C11.3479 11.1933 11.9404 10.9252 12.5695 10.8821C13.1986 10.8389 13.8222 11.0236 14.3262 11.4025C14.8303 11.7813 15.1811 12.3289 15.3146 12.9452C15.4481 13.5614 15.3553 14.2052 15.0532 14.7586C14.7511 15.3121 14.2598 15.7383 13.6693 15.9593C13.0788 16.1804 12.4284 16.1814 11.8371 15.9624C11.2458 15.7433 10.7532 15.3187 10.4492 14.7663C10.1453 14.2138 10.0503 13.5704 10.1818 12.9537Z" />
    </symbol>

    <symbol viewBox="0 0 48 48" id="media-video-play">
        <path d="M20 19L30 24L20 29V19Z" />
    </symbol>

    <symbol viewBox="0 0 14 8" id="page-menu-sub">
        <path d="M1.5 1L7 6.5L12.5 1" stroke-width="1.6" stroke-linecap="round" stroke-linejoin="round" />
    </symbol>

    <symbol viewBox="0 0 16 16" id="site-contacts-url">
        <path d="M6 0.015625H15.9844V10H14.0156V3.39062L2.39062 15.0156L0.984375 13.6094L12.6094 1.98438H6V0.015625Z" />
    </symbol>

    <symbol viewBox="0 0 32 32" id="site-contacts-fb">
        <path d="M13.3744 16.9998V24H16.2968V16.9998H18.4758L18.8904 14.1042H16.2968V12.226C16.2968 11.4336 16.6584 10.6608 17.8201 10.6608H19V8.19565C19 8.19565 17.9297 8 16.9068 8C14.7699 8 13.3744 9.38714 13.3744 11.8973V14.1042H11V16.9998H13.3744Z" />
    </symbol>

    <symbol viewBox="0 0 32 32" id="site-contacts-ok">
        <path fill-rule="evenodd" clip-rule="evenodd" d="M20.2082 11.9341C20.2082 14.1921 18.3246 16.0225 16.0009 16.0225C13.6768 16.0225 11.7933 14.192 11.7933 11.9341C11.7933 9.67619 13.6768 7.8457 16.0009 7.8457C18.3246 7.8457 20.2082 9.67619 20.2082 11.9341ZM18.0708 11.9341C18.0708 10.8232 17.1439 9.9228 16.0009 9.9228C14.8576 9.9228 13.9306 10.8232 13.9306 11.9341C13.9306 13.0451 14.8576 13.9454 16.0009 13.9454C17.1439 13.9454 18.0708 13.0451 18.0708 11.9341ZM16.0002 17.2464C16.0002 17.2464 17.8984 17.2464 19.0804 16.3414C19.9544 15.672 20.6127 16.0576 20.8501 16.5215C21.2643 17.3297 20.7963 17.7205 19.7403 18.379C18.8461 18.9372 17.62 19.1484 16.819 19.2283L17.4891 19.8794L19.9689 22.2888C20.3455 22.6547 20.3455 23.2481 19.9689 23.6145L19.8552 23.7249C19.4782 24.0911 18.8674 24.0911 18.4906 23.7249L16.0113 21.316L13.5317 23.7249C13.1551 24.0911 12.5443 24.0911 12.1673 23.7249L12.0537 23.6145C11.6768 23.2487 11.6768 22.6547 12.0537 22.2888L12.2434 22.1043C12.8592 21.5059 13.6827 20.7056 14.5329 19.8797L15.2011 19.2306C14.4009 19.1521 13.1617 18.9419 12.2597 18.3791C11.2036 17.7205 10.7358 17.3298 11.1499 16.5215C11.3874 16.0575 12.0453 15.672 12.9197 16.3414C14.1016 17.2464 16.0002 17.2464 16.0002 17.2464Z" />
    </symbol>

    <symbol viewBox="0 0 32 32" id="site-contacts-vk">
        <path fill-rule="evenodd" clip-rule="evenodd" d="M14.8067 21.9581H15.8826C15.8826 21.9581 16.2076 21.9234 16.3735 21.7492C16.5263 21.5893 16.5214 21.289 16.5214 21.289C16.5214 21.289 16.5004 19.8831 17.1704 19.676C17.8309 19.4721 18.6791 21.0348 19.5781 21.6357C20.2579 22.0904 20.7745 21.9907 20.7745 21.9907L23.1783 21.9581C23.1783 21.9581 24.4358 21.8827 23.8396 20.9199C23.7907 20.8411 23.4923 20.2076 22.0523 18.906C20.5451 17.5436 20.7469 17.7639 22.5625 15.4074C23.6683 13.9722 24.1103 13.096 23.9722 12.7207C23.8405 12.3633 23.0273 12.4577 23.0273 12.4577L20.3207 12.4742C20.3207 12.4742 20.1201 12.4475 19.9713 12.5341C19.8259 12.6191 19.7323 12.8171 19.7323 12.8171C19.7323 12.8171 19.3039 13.9277 18.7326 14.8722C17.5274 16.8651 17.0455 16.9703 16.8486 16.8466C16.3904 16.5582 16.5048 15.6879 16.5048 15.0697C16.5048 13.1383 16.8056 12.333 15.919 12.1246C15.6248 12.0553 15.4083 12.0096 14.6559 12.0023C13.6902 11.9925 12.8728 12.0051 12.41 12.226C12.1021 12.3728 11.8646 12.7 12.0092 12.7188C12.1881 12.7421 12.5933 12.8252 12.8081 13.11C13.0854 13.4774 13.0756 14.3027 13.0756 14.3027C13.0756 14.3027 13.235 16.5763 12.7035 16.8587C12.3386 17.0524 11.8382 16.6569 10.7637 14.8488C10.2132 13.9227 9.79751 12.8989 9.79751 12.8989C9.79751 12.8989 9.71736 12.7076 9.5744 12.6053C9.40091 12.4813 9.1585 12.4418 9.1585 12.4418L6.58658 12.4582C6.58658 12.4582 6.20049 12.4687 6.05876 12.6322C5.93267 12.7776 6.04874 13.0784 6.04874 13.0784C6.04874 13.0784 8.06229 17.6659 10.3422 19.9778C12.4327 22.0973 14.8067 21.9581 14.8067 21.9581Z" />
    </symbol>

    <symbol viewBox="0 0 32 32" id="site-contacts-telegram">
        <path d="M15.0561 20.9639C14.4027 21.5843 13.7599 22.1995 13.1171 22.8146C12.894 23.0284 12.6443 23.1483 12.3202 23.1326C12.1024 23.1222 11.9802 23.0284 11.9112 22.825C11.4224 21.3341 10.923 19.8431 10.4343 18.3469C10.3865 18.2009 10.3174 18.1332 10.1687 18.0862C9.01585 17.7422 7.85774 17.3877 6.71024 17.028C6.53493 16.9706 6.3543 16.9028 6.20024 16.7986C5.96118 16.6422 5.92931 16.3867 6.14181 16.1991C6.33837 16.027 6.57212 15.8811 6.81649 15.7872C8.22961 15.2398 9.64804 14.7081 11.0665 14.1711C14.663 12.8105 18.2596 11.4446 21.8561 10.084C22.5414 9.82332 23.0674 10.1882 22.993 10.9181C22.9452 11.3821 22.823 11.8408 22.7274 12.2996C21.9464 15.9176 21.1655 19.5407 20.3792 23.1587C20.1933 24.0189 19.5771 24.243 18.8599 23.7217C17.6539 22.8511 16.448 21.9753 15.2421 21.0995C15.1836 21.0526 15.1252 21.0108 15.0561 20.9639ZM12.3468 22.0639C12.3627 22.0587 12.3733 22.0587 12.3893 22.0535C12.3946 22.017 12.4052 21.9857 12.4105 21.9544C12.4902 21.136 12.5699 20.3123 12.639 19.4938C12.6549 19.3113 12.7187 19.181 12.8568 19.0559C13.9671 18.081 15.0774 17.0957 16.1824 16.1157C17.4096 15.0313 18.6368 13.947 19.8586 12.8574C19.933 12.7896 19.9649 12.6749 20.018 12.5811C19.9011 12.5707 19.7789 12.5238 19.6727 12.5498C19.5292 12.5863 19.3964 12.6697 19.2689 12.7479C16.5649 14.4214 13.8555 16.0948 11.1515 17.7682C10.9974 17.8621 10.9708 17.9403 11.0293 18.1071C11.2312 18.6701 11.4118 19.2384 11.5977 19.8066C11.8474 20.5573 12.0971 21.3132 12.3468 22.0639Z" />
    </symbol>

    <symbol viewBox="0 0 24 24" id="pager-mobile-next">
        <path d="M10 17.5L15.5 12L10 6.5" stroke-width="1.6" stroke-linecap="round" stroke-linejoin="round"/>
    </symbol>

    <symbol viewBox="0 0 24 24" id="pager-mobile-prev">
        <path d="M14.5 17.5L9 12L14.5 6.5" stroke-width="1.6" stroke-linecap="round" stroke-linejoin="round"/>
    </symbol>

    <symbol viewBox="0 0 24 28" id="contacts-address">
        <path d="M18.364 19.3639L12 25.7279L5.636 19.3639C4.37734 18.1052 3.52019 16.5016 3.17293 14.7558C2.82567 13.0099 3.00391 11.2004 3.6851 9.55582C4.36629 7.91129 5.51984 6.50569 6.99988 5.51677C8.47992 4.52784 10.22 4 12 4C13.78 4 15.5201 4.52784 17.0001 5.51677C18.4802 6.50569 19.6337 7.91129 20.3149 9.55582C20.9961 11.2004 21.1743 13.0099 20.8271 14.7558C20.4798 16.5016 19.6227 18.1052 18.364 19.3639ZM12 16.9999C13.0609 16.9999 14.0783 16.5785 14.8284 15.8283C15.5786 15.0782 16 14.0608 16 12.9999C16 11.9391 15.5786 10.9216 14.8284 10.1715C14.0783 9.42135 13.0609 8.99992 12 8.99992C10.9391 8.99992 9.92172 9.42135 9.17158 10.1715C8.42143 10.9216 8 11.9391 8 12.9999C8 14.0608 8.42143 15.0782 9.17158 15.8283C9.92172 16.5785 10.9391 16.9999 12 16.9999ZM12 14.9999C11.4696 14.9999 10.9609 14.7892 10.5858 14.4141C10.2107 14.0391 10 13.5304 10 12.9999C10 12.4695 10.2107 11.9608 10.5858 11.5857C10.9609 11.2106 11.4696 10.9999 12 10.9999C12.5304 10.9999 13.0391 11.2106 13.4142 11.5857C13.7893 11.9608 14 12.4695 14 12.9999C14 13.5304 13.7893 14.0391 13.4142 14.4141C13.0391 14.7892 12.5304 14.9999 12 14.9999Z" />
    </symbol>

    <symbol viewBox="0 0 24 28" id="contacts-phone">
        <path fill-rule="evenodd" clip-rule="evenodd" d="M21 21.956V18.42H21.001C21.0012 18.2961 20.9553 18.1766 20.8724 18.0846C20.7894 17.9926 20.6752 17.9346 20.552 17.922C20.324 17.9 20.141 17.878 20.002 17.858C18.6156 17.6601 17.267 17.2539 16.002 16.653C15.9042 16.6068 15.7932 16.5964 15.6885 16.6237C15.5838 16.6509 15.4919 16.714 15.429 16.802L13.889 18.956C10.8145 17.6365 8.36445 15.1865 7.045 12.112L9.203 10.57C9.383 10.442 9.445 10.203 9.35 10.003C8.748 8.73783 8.34073 7.38892 8.142 6.002C8.122 5.863 8.101 5.68 8.078 5.45C8.0656 5.32658 8.00776 5.21218 7.91573 5.12902C7.8237 5.04586 7.70404 4.99987 7.58 5H4.044C3.79082 4.99989 3.54703 5.09581 3.3618 5.26841C3.17658 5.44101 3.06372 5.67744 3.046 5.93C3.015 6.367 3 6.724 3 7C3 15.837 10.163 23 19 23C19.276 23 19.633 22.984 20.07 22.954C20.3226 22.9363 20.559 22.8234 20.7316 22.6382C20.9042 22.453 21.0001 22.2092 21 21.956ZM14.1094 11.8906C14.7031 12.4844 15 13.1875 15 14H17.0156C17.0156 12.625 16.5156 11.4531 15.5156 10.4844C14.5469 9.48438 13.375 8.98438 12 8.98438V11C12.8125 11 13.5156 11.2969 14.1094 11.8906ZM16.9219 9.07813C18.2969 10.4219 18.9844 12.0625 18.9844 14H21C21 11.5 20.125 9.375 18.375 7.625C16.625 5.875 14.5 5 12 5V7.01563C13.9375 7.01563 15.5781 7.70313 16.9219 9.07813Z" />
    </symbol>

    <symbol viewBox="0 0 24 28" id="contacts-email">
        <path d="M2.243 8.85399L11.49 3.30999C11.6454 3.21674 11.8233 3.16748 12.0045 3.16748C12.1857 3.16748 12.3636 3.21674 12.519 3.30999L21.757 8.85499C21.8311 8.8994 21.8925 8.96227 21.9351 9.03746C21.9776 9.11264 22 9.19758 22 9.28399V22C22 22.2652 21.8946 22.5196 21.7071 22.7071C21.5196 22.8946 21.2652 23 21 23H3C2.73478 23 2.48043 22.8946 2.29289 22.7071C2.10536 22.5196 2 22.2652 2 22V9.28299C1.99998 9.19658 2.02236 9.11164 2.06495 9.03646C2.10753 8.96127 2.16888 8.8984 2.243 8.85399ZM18.346 10.244L12.061 15.683L5.647 10.238L4.353 11.762L12.073 18.317L19.654 11.757L18.346 10.244Z" />
    </symbol>

    <symbol viewBox="0 0 24 28" id="contacts-schedule">
        <path d="M12 24C6.477 24 2 19.523 2 14C2 8.477 6.477 4 12 4C17.523 4 22 8.477 22 14C22 19.523 17.523 24 12 24ZM13 14V9H11V16H17V14H13Z" />
    </symbol>

    <symbol viewBox="0 0 24 28" id="contacts-url">
        <path d="M2.05078 15.0001H7.52778C7.6989 18.167 8.70833 21.2315 10.4528 23.8801C8.26771 23.5369 6.25798 22.4793 4.7378 20.8726C3.21762 19.2659 2.2727 17.2008 2.05078 15.0001ZM2.05078 13.0001C2.2727 10.7994 3.21762 8.73429 4.7378 7.12763C6.25798 5.52097 8.26771 4.46334 10.4528 4.12012C8.70833 6.76873 7.6989 9.83326 7.52778 13.0001H2.05078ZM21.9508 13.0001H16.4738C16.3027 9.83326 15.2932 6.76873 13.5488 4.12012C15.7338 4.46334 17.7436 5.52097 19.2638 7.12763C20.7839 8.73429 21.7289 10.7994 21.9508 13.0001ZM21.9508 15.0001C21.7289 17.2008 20.7839 19.2659 19.2638 20.8726C17.7436 22.4793 15.7338 23.5369 13.5488 23.8801C15.2932 21.2315 16.3027 18.167 16.4738 15.0001H21.9518H21.9508ZM9.53078 15.0001H14.4708C14.3062 17.6996 13.4561 20.3126 12.0008 22.5921C10.5455 20.3126 9.69538 17.6996 9.53078 15.0001ZM9.53078 13.0001C9.69538 10.3006 10.5455 7.68768 12.0008 5.40812C13.4561 7.68768 14.3062 10.3006 14.4708 13.0001H9.53078Z" />
    </symbol>

    <symbol viewBox="0 0 22 28" id="contacts-url-arrow">
        <path d="M7 7.01562H16.9844V17H15.0156V10.3906L3.39062 22.0156L1.98438 20.6094L13.6094 8.98438H7V7.01562Z" />
    </symbol>

    <symbol viewBox="0 0 36 35" id="window-close">
        <path fill-rule="evenodd" clip-rule="evenodd" d="M17.5107 14.3292L3.18151 0L0 3.18151L14.3292 17.5107L0.0209241 31.819L3.20243 35.0005L17.5107 20.6922L31.8151 34.9966L34.9966 31.8151L20.6922 17.5107L35.0175 3.18539L31.836 0.00388144L17.5107 14.3292Z" />
    </symbol>

    <symbol viewBox="0 0 24 24" id="warning-close">
        <rect x="7.05078" y="5.63672" width="16" height="2" rx="1" transform="rotate(45 7.05078 5.63672)" />
        <rect x="18.3633" y="7.05078" width="16" height="2" rx="1" transform="rotate(135 18.3633 7.05078)" />
    </symbol>

    <symbol viewBox="0 0 20 22" id="content-menu-mobile-link">
        <rect y="4" width="20" height="2" fill="#818184"/>
        <rect y="10" width="20" height="2" fill="#818184"/>
        <rect y="16" width="10" height="2" fill="#818184"/>
    </symbol>

    <symbol viewBox="0 0 20 16" id="content-menu-mobile-close">
        <rect x="3.63599" y="0.22168" width="20" height="2" transform="rotate(45 3.63599 0.22168)" fill="#818184"/>
        <rect x="2.22266" y="14.3643" width="20" height="2" transform="rotate(-45 2.22266 14.3643)" fill="#818184"/>
    </symbol>

    <symbol viewBox="0 0 8 14" id="news-other-all">
        <path d="M6.5 12.5L1 7L6.5 1.5" stroke-width="1.6" stroke-linecap="round" stroke-linejoin="round" />
    </symbol>

    <symbol viewBox="0 0 48 48" id="share-fb">
        <path d="M21.3744 24.9998V32H24.2968V24.9998H26.4758L26.8904 22.1042H24.2968V20.226C24.2968 19.4336 24.6584 18.6608 25.8201 18.6608H27V16.1956C27 16.1956 25.9297 16 24.9068 16C22.7699 16 21.3744 17.3871 21.3744 19.8973V22.1042H19V24.9998H21.3744Z" />
    </symbol>

    <symbol viewBox="0 0 48 48" id="share-ok">
        <path fill-rule="evenodd" clip-rule="evenodd" d="M27.7082 19.4346C27.7082 21.6926 25.8246 23.523 23.5009 23.523C21.1768 23.523 19.2933 21.6925 19.2933 19.4346C19.2933 17.1767 21.1768 15.3462 23.5009 15.3462C25.8246 15.3462 27.7082 17.1767 27.7082 19.4346ZM25.5708 19.4346C25.5708 18.3237 24.6439 17.4233 23.5009 17.4233C22.3576 17.4233 21.4306 18.3237 21.4306 19.4346C21.4306 20.5456 22.3576 21.4459 23.5009 21.4459C24.6439 21.4459 25.5708 20.5456 25.5708 19.4346ZM23.5002 24.7469C23.5002 24.7469 25.3984 24.7469 26.5804 23.8418C27.4544 23.1725 28.1127 23.5581 28.3501 24.0219C28.7643 24.8302 28.2963 25.221 27.2403 25.8795C26.3461 26.4377 25.12 26.6488 24.319 26.7288L24.9891 27.3799L27.4689 29.7892C27.8455 30.1552 27.8455 30.7486 27.4689 31.115L27.3552 31.2254C26.9782 31.5916 26.3674 31.5916 25.9906 31.2254L23.5113 28.8165L21.0317 31.2254C20.6551 31.5916 20.0443 31.5916 19.6673 31.2254L19.5537 31.115C19.1768 30.7492 19.1768 30.1552 19.5537 29.7892L19.7482 29.6002C20.3634 29.0023 21.1848 28.204 22.0329 27.3802L22.7011 26.7311C21.9009 26.6526 20.6617 26.4423 19.7597 25.8796C18.7036 25.221 18.2358 24.8302 18.6499 24.022C18.8874 23.558 19.5453 23.1725 20.4197 23.8418C21.6016 24.7469 23.5002 24.7469 23.5002 24.7469Z" />
    </symbol>

    <symbol viewBox="0 0 48 48" id="share-vk">
        <path fill-rule="evenodd" clip-rule="evenodd" d="M22.8067 29.9581H23.8826C23.8826 29.9581 24.2076 29.9234 24.3735 29.7492C24.5263 29.5893 24.5214 29.289 24.5214 29.289C24.5214 29.289 24.5004 27.8831 25.1704 27.676C25.8309 27.4721 26.6791 29.0348 27.5781 29.6357C28.2579 30.0904 28.7745 29.9907 28.7745 29.9907L31.1783 29.9581C31.1783 29.9581 32.4358 29.8827 31.8396 28.9199C31.7907 28.8411 31.4923 28.2076 30.0523 26.906C28.5451 25.5436 28.7469 25.7639 30.5625 23.4074C31.6683 21.9722 32.1103 21.096 31.9722 20.7207C31.8405 20.3633 31.0273 20.4577 31.0273 20.4577L28.3207 20.4742C28.3207 20.4742 28.1201 20.4475 27.9713 20.5341C27.8259 20.6191 27.7323 20.8171 27.7323 20.8171C27.7323 20.8171 27.3039 21.9277 26.7326 22.8722C25.5274 24.8651 25.0455 24.9703 24.8486 24.8466C24.3904 24.5582 24.5048 23.6879 24.5048 23.0697C24.5048 21.1383 24.8056 20.333 23.919 20.1246C23.6248 20.0553 23.4083 20.0096 22.6559 20.0023C21.6902 19.9925 20.8728 20.0051 20.41 20.226C20.1021 20.3728 19.8646 20.7 20.0092 20.7188C20.1881 20.7421 20.5933 20.8252 20.8081 21.11C21.0854 21.4774 21.0756 22.3027 21.0756 22.3027C21.0756 22.3027 21.235 24.5763 20.7035 24.8587C20.3386 25.0524 19.8382 24.6569 18.7637 22.8488C18.2132 21.9227 17.7975 20.8989 17.7975 20.8989C17.7975 20.8989 17.7174 20.7076 17.5744 20.6053C17.4009 20.4813 17.1585 20.4418 17.1585 20.4418L14.5866 20.4582C14.5866 20.4582 14.2005 20.4687 14.0588 20.6322C13.9327 20.7776 14.0487 21.0784 14.0487 21.0784C14.0487 21.0784 16.0623 25.6659 18.3422 27.9778C20.4327 30.0973 22.8067 29.9581 22.8067 29.9581Z" />
    </symbol>

    <symbol viewBox="0 0 48 48" id="share-telegram">
        <path d="M23.0561 28.9639C22.4027 29.5843 21.7599 30.1995 21.1171 30.8146C20.894 31.0284 20.6443 31.1483 20.3202 31.1326C20.1024 31.1222 19.9802 31.0284 19.9112 30.825C19.4224 29.3341 18.923 27.8431 18.4343 26.3469C18.3865 26.2009 18.3174 26.1332 18.1687 26.0862C17.0159 25.7422 15.8577 25.3877 14.7102 25.028C14.5349 24.9706 14.3543 24.9028 14.2002 24.7986C13.9612 24.6422 13.9293 24.3867 14.1418 24.1991C14.3384 24.027 14.5721 23.8811 14.8165 23.7872C16.2296 23.2398 17.648 22.7081 19.0665 22.1711C22.663 20.8105 26.2596 19.4446 29.8561 18.084C30.5414 17.8233 31.0674 18.1882 30.993 18.9181C30.9452 19.3821 30.823 19.8408 30.7274 20.2996C29.9464 23.9176 29.1655 27.5407 28.3792 31.1587C28.1933 32.0189 27.5771 32.243 26.8599 31.7217C25.6539 30.8511 24.448 29.9753 23.2421 29.0995C23.1836 29.0526 23.1252 29.0108 23.0561 28.9639ZM20.3468 30.0639C20.3627 30.0587 20.3733 30.0587 20.3893 30.0535C20.3946 30.017 20.4052 29.9857 20.4105 29.9544C20.4902 29.136 20.5699 28.3123 20.639 27.4938C20.6549 27.3113 20.7187 27.181 20.8568 27.0559C21.9671 26.081 23.0774 25.0957 24.1824 24.1157C25.4096 23.0313 26.6368 21.947 27.8586 20.8574C27.933 20.7896 27.9649 20.6749 28.018 20.5811C27.9011 20.5707 27.7789 20.5238 27.6727 20.5498C27.5292 20.5863 27.3964 20.6697 27.2689 20.7479C24.5649 22.4214 21.8555 24.0948 19.1515 25.7682C18.9974 25.8621 18.9708 25.9403 19.0293 26.1071C19.2312 26.6701 19.4118 27.2384 19.5977 27.8066C19.8474 28.5573 20.0971 29.3132 20.3468 30.0639Z" />
    </symbol>

</svg>