<svg version="1.1" xmlns="http://www.w3.org/2000/svg" xmlns:xlink="http://www.w3.org/1999/xlink">

    <symbol viewBox="0 0 16 16" id="top-sites">
        <path fill-rule="evenodd" clip-rule="evenodd" d="M4 2C4 3.10457 3.10457 4 2 4C0.895431 4 0 3.10457 0 2C0 0.895431 0.895431 0 2 0C3.10457 0 4 0.895431 4 2ZM4 8C4 9.10457 3.10457 10 2 10C0.895431 10 0 9.10457 0 8C0 6.89543 0.895431 6 2 6C3.10457 6 4 6.89543 4 8ZM2 16C3.10457 16 4 15.1046 4 14C4 12.8954 3.10457 12 2 12C0.895431 12 0 12.8954 0 14C0 15.1046 0.895431 16 2 16ZM10 2C10 3.10457 9.10457 4 8 4C6.89543 4 6 3.10457 6 2C6 0.895431 6.89543 0 8 0C9.10457 0 10 0.895431 10 2ZM8 10C9.10457 10 10 9.10457 10 8C10 6.89543 9.10457 6 8 6C6.89543 6 6 6.89543 6 8C6 9.10457 6.89543 10 8 10ZM10 14C10 15.1046 9.10457 16 8 16C6.89543 16 6 15.1046 6 14C6 12.8954 6.89543 12 8 12C9.10457 12 10 12.8954 10 14ZM14 4C15.1046 4 16 3.10457 16 2C16 0.895431 15.1046 0 14 0C12.8954 0 12 0.895431 12 2C12 3.10457 12.8954 4 14 4ZM16 8C16 9.10457 15.1046 10 14 10C12.8954 10 12 9.10457 12 8C12 6.89543 12.8954 6 14 6C15.1046 6 16 6.89543 16 8ZM14 16C15.1046 16 16 15.1046 16 14C16 12.8954 15.1046 12 14 12C12.8954 12 12 12.8954 12 14C12 15.1046 12.8954 16 14 16Z" />
    </symbol>

    <symbol viewBox="0 0 18 20" id="top-phones">
        <path d="M3 0.5H17C17.2761 0.5 17.5 0.723858 17.5 1V19C17.5 19.2761 17.2761 19.5 17 19.5H3C1.61929 19.5 0.5 18.3807 0.5 17V3C0.5 1.61929 1.61929 0.5 3 0.5Z" />
        <path d="M3 14.5H17.5V19C17.5 19.2761 17.2761 19.5 17 19.5H3C1.61929 19.5 0.5 18.3807 0.5 17C0.5 15.6193 1.61929 14.5 3 14.5Z" />
        <path d="M13.5 9.21V10.978C13.5001 11.1046 13.4521 11.2265 13.3658 11.3191C13.2795 11.4117 13.1613 11.4681 13.035 11.477C12.8165 11.492 12.638 11.5 12.5 11.5C8.0815 11.5 4.5 7.9185 4.5 3.5C4.5 3.362 4.5075 3.1835 4.523 2.965C4.53186 2.83872 4.58829 2.72051 4.6809 2.6342C4.77351 2.5479 4.89541 2.49994 5.022 2.5H6.79C6.85202 2.49994 6.91185 2.52293 6.95786 2.56451C7.00388 2.60609 7.0328 2.66329 7.039 2.725C7.0505 2.84 7.061 2.9315 7.071 3.001C7.17037 3.69446 7.374 4.36892 7.675 5.0015C7.7225 5.1015 7.6915 5.221 7.6015 5.285L6.5225 6.056C7.18223 7.59323 8.40727 8.81827 9.9445 9.478L10.7145 8.401C10.746 8.357 10.7919 8.32544 10.8442 8.31183C10.8966 8.29821 10.9521 8.3034 11.001 8.3265C11.6335 8.62693 12.3078 8.83006 13.001 8.929C13.0705 8.939 13.162 8.95 13.276 8.961C13.3376 8.96732 13.3947 8.99629 13.4362 9.04229C13.4777 9.08829 13.5006 9.14806 13.5005 9.21H13.5Z" fill="#fff" stroke="none" />
    </symbol>

    <symbol viewBox="0 0 30 20" id="top-video">
        <path d="M11 5L21 10L11 15V5Z" fill="white" />
        <rect x="0.5" y="0.5" width="29" height="19" rx="1.5" stroke="white" />
    </symbol>

    <symbol viewBox="0 0 32 26" id="top-special">
        <path d="M31.1627 5.22C30.9807 3.77972 30.28 2.45515 29.1918 1.49429C28.1035 0.533428 26.7024 0.00217466 25.2507 0H24C23.6464 0 23.3072 0.140476 23.0572 0.390525C22.8071 0.640573 22.6667 0.979711 22.6667 1.33333C22.6667 1.68696 22.8071 2.02609 23.0572 2.27614C23.3072 2.52619 23.6464 2.66667 24 2.66667H25.2507C26.0528 2.6678 26.827 2.96128 27.4283 3.49215C28.0296 4.02302 28.4168 4.75487 28.5173 5.55067C28.824 8.00133 29.0347 10.4773 29.1693 12.956C28.1915 12.2031 27.0361 11.7151 25.8146 11.5389C24.5932 11.3628 23.3469 11.5045 22.1962 11.9504C21.0455 12.3963 20.0292 13.1313 19.2453 14.0845C18.4615 15.0377 17.9366 16.1768 17.7213 17.392C17.6249 17.3607 17.5251 17.341 17.424 17.3333H14.624C14.5063 17.3406 14.3901 17.3639 14.2787 17.4027C14.0652 16.1861 13.5414 15.0453 12.758 14.0904C11.9746 13.1355 10.9581 12.3989 9.80671 11.9518C8.65535 11.5046 7.4081 11.3622 6.18557 11.5381C4.96304 11.714 3.80657 12.2024 2.828 12.956C2.96133 10.4773 3.17333 8.00133 3.48 5.55067C3.58064 4.75419 3.96839 4.02179 4.57054 3.49083C5.17269 2.95987 5.94786 2.66683 6.75067 2.66667H8C8.35362 2.66667 8.69276 2.52619 8.94281 2.27614C9.19286 2.02609 9.33333 1.68696 9.33333 1.33333C9.33333 0.979711 9.19286 0.640573 8.94281 0.390525C8.69276 0.140476 8.35362 0 8 0H6.75067C5.29871 0.00185056 3.89723 0.532957 2.80871 1.49385C1.7202 2.45474 1.01931 3.77949 0.837333 5.22C0.280396 9.68059 0.00074835 14.1714 0 18.6667C0.00928701 20.4599 0.687408 22.1851 1.90166 23.5047C3.1159 24.8243 4.77888 25.6432 6.56513 25.8013C8.35139 25.9594 10.1324 25.4453 11.5595 24.3595C12.9866 23.2737 13.9572 21.6944 14.2813 19.9307C14.3927 19.9695 14.5089 19.9928 14.6267 20H17.4267C17.5274 19.9918 17.6267 19.9716 17.7227 19.94C18.0515 21.6999 19.0243 23.2741 20.4511 24.3556C21.8779 25.437 23.6565 25.9481 25.4398 25.789C27.223 25.63 28.8831 24.8123 30.096 23.4954C31.309 22.1785 31.9878 20.457 32 18.6667C31.9993 14.1714 31.7196 9.68059 31.1627 5.22ZM7.2 23.2C6.30339 23.2 5.42692 22.9341 4.68142 22.436C3.93591 21.9379 3.35486 21.2299 3.01175 20.4015C2.66863 19.5731 2.57885 18.6616 2.75377 17.7823C2.92869 16.9029 3.36045 16.0951 3.99445 15.4611C4.62845 14.8271 5.43621 14.3954 6.31559 14.2204C7.19497 14.0455 8.10647 14.1353 8.93483 14.4784C9.76319 14.8215 10.4712 15.4026 10.9693 16.1481C11.4675 16.8936 11.7333 17.7701 11.7333 18.6667C11.7333 19.869 11.2557 21.0221 10.4056 21.8722C9.55539 22.7224 8.40231 23.2 7.2 23.2ZM24.8 23.2C23.9034 23.2 23.0269 22.9341 22.2814 22.436C21.5359 21.9379 20.9549 21.2299 20.6117 20.4015C20.2686 19.5731 20.1789 18.6616 20.3538 17.7823C20.5287 16.9029 20.9605 16.0951 21.5944 15.4611C22.2284 14.8271 23.0362 14.3954 23.9156 14.2204C24.795 14.0455 25.7065 14.1353 26.5348 14.4784C27.3632 14.8215 28.0712 15.4026 28.5693 16.1481C29.0675 16.8936 29.3333 17.7701 29.3333 18.6667C29.3333 19.869 28.8557 21.0221 28.0056 21.8722C27.1554 22.7224 26.0023 23.2 24.8 23.2Z" fill="white" />
    </symbol>

    <symbol viewBox="0 0 24 24" id="top-search">
        <path fill-rule="evenodd" clip-rule="evenodd" d="M14.9639 14.2559H15.7539L20.7439 19.2559L19.2539 20.7459L14.2539 15.7559V14.9659L13.9839 14.6859C12.8439 15.6659 11.3639 16.2559 9.75391 16.2559C6.16391 16.2559 3.25391 13.3459 3.25391 9.75586C3.25391 6.16586 6.16391 3.25586 9.75391 3.25586C13.3439 3.25586 16.2539 6.16586 16.2539 9.75586C16.2539 11.3659 15.6639 12.8459 14.6839 13.9859L14.9639 14.2559ZM5.25391 9.75586C5.25391 12.2459 7.26391 14.2559 9.75391 14.2559C12.2439 14.2559 14.2539 12.2459 14.2539 9.75586C14.2539 7.26586 12.2439 5.25586 9.75391 5.25586C7.26391 5.25586 5.25391 7.26586 5.25391 9.75586Z" />
    </symbol>

    <symbol viewBox="0 0 32 32" id="search-window-close">
        <rect x="9.63672" y="8.22168" width="20" height="2" transform="rotate(45 9.63672 8.22168)" />
        <rect x="8.22266" y="22.3643" width="20" height="2" transform="rotate(-45 8.22266 22.3643)" />
    </symbol>

    <symbol viewBox="0 0 20 22" id="burger-link">
        <rect y="4" width="20" height="2" />
        <rect y="10" width="20" height="2" />
        <rect y="16" width="20" height="2" fill="#333333"/>
    </symbol>

    <symbol viewBox="0 0 20 16" id="burger-close">
        <rect x="3.63574" y="0.22168" width="20" height="2" transform="rotate(45 3.63574 0.22168)" />
        <rect x="2.22266" y="14.3643" width="20" height="2" transform="rotate(-45 2.22266 14.3643)" />
    </symbol>

    <symbol viewBox="0 0 19 16" id="slick-arrow">
        <rect x="3.67969" y="7" width="14" height="2" />
        <path fill-rule="evenodd" clip-rule="evenodd" d="M10.1642 2.41421L8.75 1L3.09315 6.65685L1.67893 8.07107L3.09315 9.48528L8.75 15.1421L10.1642 13.7279L4.50736 8.07107L10.1642 2.41421Z" />
    </symbol>

    <symbol viewBox="0 0 24 24" id="main-important-item-link">
        <path d="M10 17.5L15.5 12L10 6.5" stroke-width="1.6" stroke-linecap="round" stroke-linejoin="round" />
    </symbol>

    <symbol viewBox="0 0 5 8" id="main-block-all">
        <path d="M0.227539 0.8L1.023 1.39082e-07L5.00028 4L1.023 8L0.227538 7.2L3.40937 4L0.227539 0.8Z" />
    </symbol>

    <symbol viewBox="0 0 12 10" id="main-news-video">
        <path fill-rule="evenodd" clip-rule="evenodd" d="M2 0C0.895431 0 0 0.89543 0 2V8C0 9.10457 0.895431 10 2 10H10C11.1046 10 12 9.10457 12 8V2C12 0.895431 11.1046 0 10 0H2ZM10 5L3 2V8L10 5Z" />
    </symbol>

    <symbol viewBox="0 0 13 11" id="main-news-photo">
        <path fill-rule="evenodd" clip-rule="evenodd" d="M7.81063 0.0078125H4.205L3.1064 2H1.19091C0.871662 2 0.589972 2.12207 0.345841 2.3662C0.120489 2.61033 0.0078125 2.89202 0.0078125 3.21127V9.78873C0.0078125 10.108 0.120489 10.3897 0.345841 10.6338C0.589972 10.8779 0.871662 11 1.19091 11H10.8247C11.144 11 11.4163 10.8779 11.6416 10.6338C11.8857 10.3897 12.0078 10.108 12.0078 9.78873V3.21127C12.0078 2.89202 11.8857 2.61033 11.6416 2.3662C11.4163 2.12207 11.144 2 10.8247 2H8.90922L7.81063 0.0078125ZM7.92245 5.94659C7.97295 6.12234 8 6.30801 8 6.5C8 7.60457 7.10457 8.5 6 8.5C4.89543 8.5 4 7.60457 4 6.5C4 6.28616 4.03356 6.08017 4.0957 5.88698C4.35454 5.08229 5.10927 4.5 6 4.5C6.91258 4.5 7.6824 5.11121 7.92245 5.94659Z" />
    </symbol>

    <symbol viewBox="0 0 15 10" id="main-news-view">
        <path d="M6.06383 3.59375C6.46808 3.19792 6.94681 3 7.5 3C8.05319 3 8.53191 3.19792 8.93617 3.59375C9.34043 3.98958 9.54255 4.45833 9.54255 5C9.54255 5.54167 9.34043 6.01042 8.93617 6.40625C8.53191 6.80208 8.05319 7 7.5 7C6.94681 7 6.46808 6.80208 6.06383 6.40625C5.65957 6.01042 5.45745 5.54167 5.45745 5C5.45745 4.45833 5.65957 3.98958 6.06383 3.59375ZM5.07447 7.375C5.75532 8.02083 6.56383 8.34375 7.5 8.34375C8.43617 8.34375 9.23404 8.02083 9.89362 7.375C10.5745 6.70833 10.9149 5.91667 10.9149 5C10.9149 4.08333 10.5745 3.30208 9.89362 2.65625C9.23404 1.98958 8.43617 1.65625 7.5 1.65625C6.56383 1.65625 5.75532 1.98958 5.07447 2.65625C4.41489 3.30208 4.08511 4.08333 4.08511 5C4.08511 5.91667 4.41489 6.70833 5.07447 7.375ZM2.93617 1.375C4.29787 0.458333 5.81915 0 7.5 0C9.18085 0 10.7021 0.458333 12.0638 1.375C13.4255 2.29167 14.4043 3.5 15 5C14.4043 6.5 13.4255 7.70833 12.0638 8.625C10.7021 9.54167 9.18085 10 7.5 10C5.81915 10 4.29787 9.54167 2.93617 8.625C1.57447 7.70833 0.595745 6.5 0 5C0.595745 3.5 1.57447 2.29167 2.93617 1.375Z" />
    </symbol>

    <symbol viewBox="0 0 12 16" id="breadcrumbs">
        <path d="M4.22656 4.8L5.02202 4L8.99931 8L5.02202 12L4.22656 11.2L7.40839 8L4.22656 4.8Z" />
    </symbol>

    <symbol viewBox="0 0 24 24" id="media-icon-photo">
        <path d="M8.4375 15.5625C9.4375 16.5312 10.625 17.0156 12 17.0156C13.375 17.0156 14.5469 16.5312 15.5156 15.5625C16.5156 14.5625 17.0156 13.375 17.0156 12C17.0156 10.625 16.5156 9.45312 15.5156 8.48438C14.5469 7.48438 13.375 6.98438 12 6.98438C10.625 6.98438 9.4375 7.48438 8.4375 8.48438C7.46875 9.45312 6.98438 10.625 6.98438 12C6.98438 13.375 7.46875 14.5625 8.4375 15.5625ZM9 2.01562H15L16.8281 3.98438H20.0156C20.5469 3.98438 21 4.1875 21.375 4.59375C21.7812 5 21.9844 5.46875 21.9844 6V18C21.9844 18.5312 21.7812 19 21.375 19.4062C21 19.8125 20.5469 20.0156 20.0156 20.0156H3.98438C3.45312 20.0156 2.98438 19.8125 2.57812 19.4062C2.20312 19 2.01562 18.5312 2.01562 18V6C2.01562 5.46875 2.20312 5 2.57812 4.59375C2.98438 4.1875 3.45312 3.98438 3.98438 3.98438H7.17188L9 2.01562ZM9.75 14.25C9.125 13.625 8.8125 12.875 8.8125 12C8.8125 11.125 9.125 10.375 9.75 9.75C10.375 9.125 11.125 8.8125 12 8.8125C12.875 8.8125 13.625 9.125 14.25 9.75C14.875 10.375 15.1875 11.125 15.1875 12C15.1875 12.875 14.875 13.625 14.25 14.25C13.625 14.875 12.875 15.1875 12 15.1875C11.125 15.1875 10.375 14.875 9.75 14.25Z" />
    </symbol>

    <symbol viewBox="0 0 24 24" id="media-icon-video">
        <path fill-rule="evenodd" clip-rule="evenodd" d="M16.8281 3.98438H7.17188H3.98438C3.45312 3.98438 2.98438 4.1875 2.57812 4.59375C2.20312 5 2.01562 5.46875 2.01562 6V18C2.01562 18.5312 2.20312 19 2.57812 19.4062C2.98438 19.8125 3.45312 20.0156 3.98438 20.0156H20.0156C20.5469 20.0156 21 19.8125 21.375 19.4062C21.7812 19 21.9844 18.5312 21.9844 18V6C21.9844 5.46875 21.7812 5 21.375 4.59375C21 4.1875 20.5469 3.98438 20.0156 3.98438H16.8281ZM17.5 12L8 8V16L17.5 12Z" />
    </symbol>

    <symbol viewBox="0 0 48 48" id="media-icon-zoom">
        <circle cx="24" cy="24" r="23" stroke="white" stroke-opacity="0.92" stroke-width="2" />
        <rect x="23" y="14" width="2" height="20" fill="white" />
        <rect x="14" y="25" width="2" height="20" transform="rotate(-90 14 25)" fill="white" />
    </symbol>

    <symbol viewBox="0 0 18 18" id="share-icon">
        <path d="M10.1818 12.9537L6.34929 10.8634C5.9814 11.2286 5.51364 11.4767 5.00498 11.5764C4.49631 11.6761 3.9695 11.623 3.49098 11.4238C3.01245 11.2245 2.60363 10.8881 2.31605 10.4568C2.02846 10.0255 1.875 9.5188 1.875 9.00045C1.875 8.4821 2.02846 7.97535 2.31605 7.54409C2.60363 7.11284 3.01245 6.77637 3.49098 6.57712C3.9695 6.37788 4.49631 6.32476 5.00498 6.42448C5.51364 6.52419 5.9814 6.77228 6.34929 7.13745L10.1818 5.0472C10.0503 4.4305 10.1453 3.78709 10.4492 3.23464C10.7532 2.68218 11.2458 2.2576 11.8371 2.03852C12.4284 1.81945 13.0788 1.82053 13.6693 2.04156C14.2598 2.2626 14.7511 2.68882 15.0532 3.24228C15.3553 3.79574 15.4481 4.43946 15.3146 5.05571C15.1811 5.67197 14.8303 6.21959 14.3262 6.59842C13.8222 6.97726 13.1986 7.16199 12.5695 7.11885C11.9404 7.0757 11.3479 6.80756 10.9003 6.36345L7.06779 8.4537C7.14423 8.81419 7.14423 9.18671 7.06779 9.5472L10.9003 11.6374C11.3479 11.1933 11.9404 10.9252 12.5695 10.8821C13.1986 10.8389 13.8222 11.0236 14.3262 11.4025C14.8303 11.7813 15.1811 12.3289 15.3146 12.9452C15.4481 13.5614 15.3553 14.2052 15.0532 14.7586C14.7511 15.3121 14.2598 15.7383 13.6693 15.9593C13.0788 16.1804 12.4284 16.1814 11.8371 15.9624C11.2458 15.7433 10.7532 15.3187 10.4492 14.7663C10.1453 14.2138 10.0503 13.5704 10.1818 12.9537Z" />
    </symbol>

    <symbol viewBox="0 0 48 48" id="media-video-play">
        <path d="M20 19L30 24L20 29V19Z" />
    </symbol>

</svg>