<svg width="31" height="28" viewBox="0 0 31 28" fill="none" xmlns="http://www.w3.org/2000/svg">
<path d="M14.6381 1.37086C15.0196 0.737804 15.9324 0.72315 16.334 1.34363L30.0009 22.4566C30.4316 23.1219 29.954 24 29.1614 24H2.77025C1.99208 24 1.51209 23.1503 1.91377 22.4838L14.6381 1.37086Z" fill="#FF9500"/>
<path d="M13.9569 7H17.0369V16.2H13.9569V7ZM15.4969 21.26C14.9635 21.26 14.5102 21.08 14.1369 20.72C13.7769 20.3467 13.5969 19.8933 13.5969 19.36C13.5969 18.8267 13.7769 18.38 14.1369 18.02C14.5102 17.6467 14.9635 17.46 15.4969 17.46C16.0302 17.46 16.4769 17.6467 16.8369 18.02C17.2102 18.38 17.3969 18.8267 17.3969 19.36C17.3969 19.8933 17.2102 20.3467 16.8369 20.72C16.4769 21.08 16.0302 21.26 15.4969 21.26Z" fill="white"/>
</svg>
